<svg width="49" height="49" viewBox="0 0 49 49" fill="none" xmlns="http://www.w3.org/2000/svg">
<rect width="49" height="49" rx="24.5" fill="#17875C"/>
<path opacity="0.4" fill-rule="evenodd" clip-rule="evenodd" d="M17.333 26.6667C17.8853 26.6667 18.333 27.1144 18.333 27.6667V31.6667C18.333 32.2189 17.8853 32.6667 17.333 32.6667C16.7807 32.6667 16.333 32.2189 16.333 31.6667V27.6667C16.333 27.1144 16.7807 26.6667 17.333 26.6667Z" fill="white"/>
<path opacity="0.4" fill-rule="evenodd" clip-rule="evenodd" d="M22.6665 24C23.2188 24 23.6665 24.4477 23.6665 25V31.6667C23.6665 32.219 23.2188 32.6667 22.6665 32.6667C22.1142 32.6667 21.6665 32.219 21.6665 31.6667V25C21.6665 24.4477 22.1142 24 22.6665 24Z" fill="white"/>
<path opacity="0.4" fill-rule="evenodd" clip-rule="evenodd" d="M28 26.6667C28.5523 26.6667 29 27.1144 29 27.6667V31.6667C29 32.2189 28.5523 32.6667 28 32.6667C27.4477 32.6667 27 32.2189 27 31.6667V27.6667C27 27.1144 27.4477 26.6667 28 26.6667Z" fill="white"/>
<path opacity="0.4" fill-rule="evenodd" clip-rule="evenodd" d="M33.333 24C33.8853 24 34.333 24.4477 34.333 25V31.6667C34.333 32.219 33.8853 32.6667 33.333 32.6667C32.7807 32.6667 32.333 32.219 32.333 31.6667V25C32.333 24.4477 32.7807 24 33.333 24Z" fill="white"/>
<path fill-rule="evenodd" clip-rule="evenodd" d="M10.6665 10.6667C11.2188 10.6667 11.6665 11.1144 11.6665 11.6667V33C11.6665 35.3932 13.6066 37.3333 15.9998 37.3333H37.3332C37.8855 37.3333 38.3332 37.781 38.3332 38.3333C38.3332 38.8856 37.8855 39.3333 37.3332 39.3333H15.9998C12.502 39.3333 9.6665 36.4978 9.6665 33V11.6667C9.6665 11.1144 10.1142 10.6667 10.6665 10.6667Z" fill="white"/>
<path fill-rule="evenodd" clip-rule="evenodd" d="M34.0401 16.2929C34.4306 16.6834 34.4306 17.3166 34.0401 17.7071L30.5924 21.1548C29.1605 22.5867 26.8389 22.5867 25.407 21.1548L23.8449 19.5927C23.194 18.9419 22.1387 18.9419 21.4878 19.5927L18.0401 23.0404C17.6496 23.431 17.0164 23.431 16.6259 23.0404C16.2354 22.6499 16.2354 22.0168 16.6259 21.6262L20.0736 18.1785C21.5055 16.7466 23.8271 16.7466 25.2591 18.1785L26.8212 19.7406C27.472 20.3915 28.5273 20.3915 29.1782 19.7406L32.6259 16.2929C33.0164 15.9024 33.6496 15.9024 34.0401 16.2929Z" fill="white"/>
</svg>
