<svg width="24" height="25" viewBox="0 0 24 25" fill="none" xmlns="http://www.w3.org/2000/svg">
<path opacity="0.4" d="M21.1303 10.4858C22.2899 11.7252 22.2899 13.6083 21.1303 14.8478C19.1745 16.9382 15.8155 19.7779 12 19.7779C8.18448 19.7779 4.82549 16.9382 2.86971 14.8478C1.7101 13.6083 1.7101 11.7252 2.86971 10.4858C4.82549 8.39537 8.18448 5.55566 12 5.55566C15.8155 5.55566 19.1745 8.39537 21.1303 10.4858Z" fill="#17875C"/>
<path d="M14.1213 14.8218C14.3999 14.5388 14.6209 14.2028 14.7716 13.833C14.9224 13.4633 15 13.067 15 12.6668C15 12.2665 14.9224 11.8702 14.7716 11.5005C14.6209 11.1307 14.3999 10.7948 14.1213 10.5118C13.8427 10.2288 13.512 10.0043 13.1481 9.85113C12.7841 9.69797 12.394 9.61914 12 9.61914C11.606 9.61914 11.2159 9.69797 10.8519 9.85113C10.488 10.0043 10.1573 10.2288 9.87868 10.5118L12 12.6668L14.1213 14.8218Z" fill="#17875C"/>
<path fill-rule="evenodd" clip-rule="evenodd" d="M12 19.7778C8.18448 19.7778 4.82549 16.9381 2.86971 14.8477C1.7101 13.6083 1.7101 11.7252 2.86971 10.4857C3.69954 9.59878 4.78198 8.57693 6.04473 7.69434L3.46976 5.07848C3.17686 4.78094 3.17686 4.29853 3.46976 4.00099C3.76265 3.70345 4.23752 3.70345 4.53042 4.00099L20.5304 20.255C20.8233 20.5525 20.8233 21.0349 20.5304 21.3325C20.2375 21.63 19.7626 21.63 19.4698 21.3325L16.643 18.4608C15.2337 19.2403 13.6601 19.7778 12 19.7778ZM12 15.7144C10.3431 15.7144 9 14.35 9 12.6668C9 12.1016 9.15146 11.5723 9.41539 11.1186L13.524 15.2925C13.0774 15.5606 12.5564 15.7144 12 15.7144Z" fill="#17875C"/>
</svg>
