<svg width="25" height="25" viewBox="0 0 25 25" fill="none" xmlns="http://www.w3.org/2000/svg">
<path opacity="0.4" d="M3.20529 6.89288L3.61945 18.8857C3.6957 21.0936 5.5473 22.8215 7.75512 22.7453L13.7515 22.5382L21.4707 14.2669L21.1946 6.27163C21.1183 4.06381 19.2667 2.33583 17.0589 2.41207L7.06485 2.75721C4.85702 2.83345 3.12904 4.68506 3.20529 6.89288Z" fill="#28303F"/>
<path d="M13.6135 18.5406L13.7515 22.5382L21.4707 14.2669L17.4731 14.4049C15.2652 14.4812 13.5372 16.3328 13.6135 18.5406Z" fill="#28303F"/>
<path fill-rule="evenodd" clip-rule="evenodd" d="M13.8758 7.97015C13.2221 7.36009 12.3005 7.21342 11.5173 7.52041C11.1316 7.67158 10.6965 7.48149 10.5453 7.09585C10.3941 6.7102 10.5842 6.27503 10.9699 6.12387C12.2704 5.6141 13.8075 5.8547 14.8992 6.87352C15.9909 7.89234 16.337 9.4092 15.9181 10.7418C15.7939 11.1369 15.3729 11.3566 14.9777 11.2324C14.5826 11.1082 14.3629 10.6871 14.4871 10.292C14.7394 9.48948 14.5295 8.58022 13.8758 7.97015ZM14.136 12.1344C14.2871 12.52 14.097 12.9552 13.7114 13.1063C12.4109 13.6161 10.8738 13.3755 9.78208 12.3567C8.69038 11.3379 8.34431 9.82104 8.76314 8.48848C8.88734 8.09333 9.30836 7.87367 9.70351 7.99787C10.0987 8.12207 10.3183 8.54309 10.1941 8.93825C9.94189 9.74075 10.1518 10.65 10.8055 11.2601C11.4592 11.8701 12.3808 12.0168 13.164 11.7098C13.5496 11.5586 13.9848 11.7487 14.136 12.1344Z" fill="#28303F"/>
</svg>
