<svg width="18" height="20" viewBox="0 0 18 20" fill="none" xmlns="http://www.w3.org/2000/svg">
<path opacity="0.4" d="M15.8188 0H2.18117C0.442004 0 -0.595343 1.91555 0.369373 3.34564L6.09107 10.8274C6.56799 11.5344 6.82249 12.3651 6.82249 13.2148V18.9219C6.82249 19.8805 7.99523 20.3605 8.68111 19.6827L10.8586 17.5307C11.0628 17.329 11.1775 17.0553 11.1775 16.7699V13.2148C11.1775 12.3651 11.432 11.5344 11.9089 10.8274L17.6306 3.34564C18.5953 1.91555 17.558 0 15.8188 0Z" fill="#17875C"/>
<path d="M15.8188 0H2.18117C0.442004 0 -0.595343 1.91555 0.369373 3.34564L6.09107 10.8274C6.33282 11.1858 6.51742 11.576 6.64069 11.9843L11.3542 12.0012C11.4775 11.5868 11.6638 11.1908 11.9089 10.8274L17.6306 3.34564C18.5953 1.91555 17.558 0 15.8188 0Z" fill="#17875C"/>
</svg>
