<svg width="32" height="32" viewBox="0 0 32 32" fill="none" xmlns="http://www.w3.org/2000/svg">
<path opacity="0.4" d="M5.3335 16C5.3335 14.5272 6.5274 13.3333 8.00016 13.3333H20.0002C21.4729 13.3333 22.6668 14.5272 22.6668 16C22.6668 17.4727 21.4729 18.6666 20.0002 18.6666H8.00016C6.5274 18.6666 5.3335 17.4727 5.3335 16Z" fill="#8A8A8A"/>
<path d="M20.0002 18.6667H8.22238C6.6269 18.6667 5.3335 19.8606 5.3335 21.3333C5.3335 22.8061 6.6269 24 8.22239 24H20.0002C21.4729 24 22.6668 22.8061 22.6668 21.3333C22.6668 19.8606 21.4729 18.6667 20.0002 18.6667Z" fill="#8A8A8A"/>
<path opacity="0.4" d="M26.6667 24C26.6667 21.0545 24.2789 18.6667 21.3333 18.6667C21.0675 18.6667 20.8063 18.6861 20.5509 18.7236C17.9763 19.1021 16 21.3203 16 24C16 26.9455 18.3878 29.3333 21.3333 29.3333C24.2789 29.3333 26.6667 26.9455 26.6667 24Z" fill="#8A8A8A"/>
<path fill-rule="evenodd" clip-rule="evenodd" d="M15.0003 4.52859L14.0408 5.48815C13.6502 5.87867 13.0171 5.87867 12.6266 5.48815C12.236 5.09762 12.236 4.46446 12.6266 4.07393L14.3504 2.35007C15.2616 1.43885 16.739 1.43885 17.6502 2.35007L19.3741 4.07393C19.7646 4.46446 19.7646 5.09762 19.3741 5.48815C18.9836 5.87867 18.3504 5.87867 17.9599 5.48815L17.0003 4.52859L17.0003 9.33332C17.0003 9.88561 16.5526 10.3333 16.0003 10.3333C15.448 10.3333 15.0003 9.88561 15.0003 9.33332L15.0003 4.52859Z" fill="#8A8A8A"/>
</svg>
