<svg width="22" height="18" viewBox="0 0 22 18" fill="none" xmlns="http://www.w3.org/2000/svg">
<path opacity="0.4" fill-rule="evenodd" clip-rule="evenodd" d="M11 2.75C11.4142 2.75 11.75 3.08579 11.75 3.5V4.35352C12.9043 4.67998 13.75 5.74122 13.75 7C13.75 7.41421 13.4142 7.75 13 7.75C12.5858 7.75 12.25 7.41421 12.25 7C12.25 6.30964 11.6904 5.75 11 5.75C10.3096 5.75 9.75 6.30964 9.75 7C9.75 7.69036 10.3096 8.25 11 8.25C12.5188 8.25 13.75 9.48122 13.75 11C13.75 12.2588 12.9043 13.32 11.75 13.6465V14.5C11.75 14.9142 11.4142 15.25 11 15.25C10.5858 15.25 10.25 14.9142 10.25 14.5V13.6465C9.09575 13.32 8.25 12.2588 8.25 11C8.25 10.5858 8.58579 10.25 9 10.25C9.41421 10.25 9.75 10.5858 9.75 11C9.75 11.6904 10.3096 12.25 11 12.25C11.6904 12.25 12.25 11.6904 12.25 11C12.25 10.3096 11.6904 9.75 11 9.75C9.48122 9.75 8.25 8.51878 8.25 7C8.25 5.74122 9.09575 4.67998 10.25 4.35352V3.5C10.25 3.08579 10.5858 2.75 11 2.75Z" fill="#28303F"/>
<path fill-rule="evenodd" clip-rule="evenodd" d="M2.88648 5.71859C4.18395 2.51328 7.32685 0.25 11.0002 0.25C15.351 0.25 18.9602 3.42553 19.6364 7.58533L20.5502 6.9C20.8815 6.65147 21.3516 6.71863 21.6002 7.05C21.8487 7.38137 21.7815 7.85147 21.4502 8.1L20.439 8.85836C19.6057 9.48333 18.4908 9.58386 17.5592 9.11803L16.6648 8.67082C16.2943 8.48558 16.1441 8.03507 16.3293 7.66459C16.5146 7.29411 16.9651 7.14394 17.3356 7.32918L18.1395 7.73114C17.5395 4.33207 14.5714 1.75 11.0002 1.75C7.95872 1.75 5.35296 3.62306 4.27689 6.28141C4.12147 6.66536 3.68422 6.85062 3.30027 6.6952C2.91632 6.53978 2.73106 6.10254 2.88648 5.71859ZM2.32897 10.1794C2.29555 10.1926 2.26253 10.2073 2.23 10.2236L1.33557 10.6708C0.965091 10.8561 0.514586 10.7059 0.329344 10.3354C0.144102 9.96493 0.29427 9.51442 0.664754 9.32918L1.55918 8.88197C2.49084 8.41614 3.60572 8.51667 4.43902 9.14164L5.45016 9.9C5.78154 10.1485 5.84869 10.6186 5.60016 10.95C5.35164 11.2814 4.88154 11.3485 4.55016 11.1L3.93635 10.6396C4.67946 13.8539 7.56 16.25 11.0002 16.25C14.0416 16.25 16.6474 14.3769 17.7234 11.7186C17.8789 11.3346 18.3161 11.1494 18.7001 11.3048C19.084 11.4602 19.2693 11.8975 19.1139 12.2814C17.8164 15.4867 14.6735 17.75 11.0002 17.75C6.56763 17.75 2.90489 14.4541 2.32897 10.1794Z" fill="#28303F"/>
</svg>
