<svg width="16" height="16" viewBox="0 0 16 16" fill="none" xmlns="http://www.w3.org/2000/svg">
<path d="M6.6887 2.18094C7.22516 1.05079 8.77516 1.05079 9.31162 2.18093L10.2388 4.13411C10.4518 4.58289 10.8636 4.89395 11.3399 4.96592L13.4131 5.27912C14.6126 5.46035 15.0916 6.99302 14.2236 7.87272L12.7234 9.39305C12.3788 9.74238 12.2215 10.2457 12.3028 10.7389L12.657 12.8857C12.8619 14.1278 11.6079 15.0751 10.535 14.4886L8.68071 13.4751C8.25466 13.2422 7.74567 13.2422 7.31961 13.4751L5.46534 14.4886C4.39242 15.0751 3.13844 14.1278 3.34335 12.8857L3.69749 10.7389C3.77886 10.2457 3.62157 9.74238 3.27688 9.39306L1.77675 7.87272C0.90874 6.99302 1.38771 5.46035 2.58727 5.27912L4.66041 4.96592C5.13676 4.89395 5.54854 4.58289 5.76157 4.13411L6.6887 2.18094Z" fill="#E4D21F"/>
</svg>
