<svg width="32" height="32" viewBox="0 0 32 32" fill="none" xmlns="http://www.w3.org/2000/svg">
<path opacity="0.4" d="M29.3332 16C29.3332 20.0178 27.556 23.6206 24.7449 26.0651C22.4039 28.1008 19.3458 29.3333 15.9998 29.3333C12.6539 29.3333 9.59575 28.1008 7.25473 26.0651C4.44363 23.6206 2.6665 20.0178 2.6665 16C2.6665 8.63619 8.63604 2.66666 15.9998 2.66666C23.3636 2.66666 29.3332 8.63619 29.3332 16Z" fill="#8A8A8A"/>
<ellipse cx="16" cy="13.3333" rx="4" ry="4" fill="#8A8A8A"/>
<path d="M24.7451 26.0651C23.4205 22.5224 20.0048 20 16 20C11.9952 20 8.57946 22.5224 7.25488 26.0651C9.59591 28.1008 12.654 29.3333 16 29.3333C19.346 29.3333 22.4041 28.1008 24.7451 26.0651Z" fill="#8A8A8A"/>
</svg>
