<svg width="27" height="28" viewBox="0 0 27 28" fill="none" xmlns="http://www.w3.org/2000/svg">
<path opacity="0.4" d="M26.833 6H5.49967C2.55416 6 0.16634 8.38781 0.16634 11.3333V22C0.16634 24.9455 2.55416 27.3333 5.49967 27.3333H21.4997C24.4452 27.3333 26.833 24.9455 26.833 22V6Z" fill="#8A8A8A"/>
<path d="M26.8332 5.99999C26.8332 3.05447 24.4454 0.666656 21.4998 0.666656H13.4998C10.5543 0.666656 8.1665 3.05447 8.1665 5.99999H26.8332Z" fill="#8A8A8A"/>
<path d="M0.166504 14L0.166504 19.3333L5.49984 19.3333C6.9726 19.3333 8.1665 18.1394 8.1665 16.6667C8.1665 15.1939 6.9726 14 5.49984 14L0.166504 14Z" fill="#8A8A8A"/>
</svg>
